<?xml version="1.0" encoding="utf-8"?>
<!-- Generator: Adobe Illustrator 22.0.1, SVG Export Plug-In . SVG Version: 6.00 Build 0)  -->
<svg version="1.1" id="Capa_1" xmlns="http://www.w3.org/2000/svg" xmlns:xlink="http://www.w3.org/1999/xlink" x="0px" y="0px"
	 viewBox="0 0 512 512" style="enable-background:new 0 0 512 512;" xml:space="preserve">
<style type="text/css">
	.st0{fill:#FFFFFF;}
</style>
<g>
	<path class="st0" d="M355.9,0H98.2C80.9,0,66.8,14.1,66.8,31.4v449.2c0,17.3,14.1,31.4,31.4,31.4h315.6c17.3,0,31.4-14.1,31.4-31.4
		V97.1L355.9,0z M363.3,47l39.2,42.6h-39.2V47z M418.9,480.6c0,2.8-2.3,5-5,5H98.2c-2.8,0-5-2.3-5-5V31.4c0-2.8,2.3-5,5-5h238.7
		v76.4c0,7.3,5.9,13.2,13.2,13.2h68.8V480.6z M139.7,140.2h223.9c5.5,0,9.9,4.4,9.9,9.9c0,5.5-4.4,9.9-9.9,9.9H139.7
		c-5.5,0-9.9-4.4-9.9-9.9C129.8,144.7,134.2,140.2,139.7,140.2z M373.4,216.5c0,5.5-4.4,9.9-9.9,9.9H139.7c-5.5,0-9.9-4.4-9.9-9.9
		c0-5.5,4.4-9.9,9.9-9.9h223.9C369,206.6,373.4,211,373.4,216.5z M373.4,280.7c0,5.5-4.4,9.9-9.9,9.9H139.7c-5.5,0-9.9-4.4-9.9-9.9
		c0-5.5,4.4-9.9,9.9-9.9h223.9C369,270.8,373.4,275.2,373.4,280.7z M373.4,346c0,5.5-4.4,9.9-9.9,9.9H139.7c-5.5,0-9.9-4.4-9.9-9.9
		c0-5.5,4.4-9.9,9.9-9.9h223.9C369,336.1,373.4,340.5,373.4,346z"/>
</g>
</svg>
